<?xml version="1.0" standalone="no"?>
<!DOCTYPE svg PUBLIC "-//W3C//DTD SVG 20010904//EN"
 "http://www.w3.org/TR/2001/REC-SVG-20010904/DTD/svg10.dtd">
<svg version="1.0" xmlns="http://www.w3.org/2000/svg"
 width="700.000000pt" height="700.000000pt" viewBox="0 0 700.000000 700.000000"
 preserveAspectRatio="xMidYMid meet">
<metadata>
Created by potrace 1.11, written by Peter Selinger 2001-2013
</metadata>
<g transform="translate(0.000000,700.000000) scale(0.100000,-0.100000)"
fill="#000000" stroke="none">
<path d="M1235 5699 c-57 -16 -139 -74 -177 -124 -79 -105 -73 70 -73 -1975 0
-1783 0 -1826 19 -1877 39 -105 136 -196 237 -223 24 -7 819 -9 2230 -8 l2194
3 50 27 c106 55 176 152 195 269 14 88 14 3530 0 3618 -20 122 -92 219 -200
270 l-55 26 -2195 2 c-1242 1 -2208 -3 -2225 -8z"/>
</g>
</svg>
